<svg xmlns="http://www.w3.org/2000/svg" viewBox="0 0 198.5 74.62"><title>Udemy logo - Brandlogos.net</title><path d="M443.59,492.49l-15.42-8.9-15.42,8.9v-8.9l15.42-8.9,15.42,8.9v8.9Z" transform="translate(-412.75 -474.69)" style="fill:#a435f0"/><path d="M412.75,500h8.08v19.62a7.35,7.35,0,1,0,14.69-.07V500h8.08v20.09c0,4.67-1.47,8.27-4.4,10.75a16.58,16.58,0,0,1-11.08,3.67c-4.47,0-8.14-1.2-11-3.67s-4.34-5.94-4.34-10.55Zm100.67,24.39A12.22,12.22,0,0,1,505,527.6c-5.79,0-9.68-3.3-10.12-8.41H521s.18-1.65.18-3.2a16.72,16.72,0,0,0-4.67-12.08A15.64,15.64,0,0,0,504.54,499a17.32,17.32,0,0,0-12.68,4.87c-3.27,3.27-4.94,7.54-4.94,12.88v.26c0,5.27,1.67,9.48,4.94,12.62s7.61,4.74,12.88,4.74a18.8,18.8,0,0,0,14.67-6.59ZM498.07,508a10.34,10.34,0,0,1,6.47-2.14,8.61,8.61,0,0,1,5.94,2.2,6.57,6.57,0,0,1,2.53,4.87H495.1a7.33,7.33,0,0,1,3-4.94Zm96.65,31c-3.28,7.74-6.71,10.37-12,10.37h-3.64v-7.16h2.95c1.81,0,3.49-.68,5.09-4.38l1.6-3.7L574.94,500h8.21L593,524.53,603,500h8.21l-16.53,39ZM475,487.09V503a16.63,16.63,0,0,0-10.75-3.78,16,16,0,0,0-12,5.07,17.28,17.28,0,0,0-4.81,12.48,17.54,17.54,0,0,0,4.81,12.55,16.17,16.17,0,0,0,12,5A15.47,15.47,0,0,0,475,530.51v3.1h8V487.09h-8Zm-2.4,37a10,10,0,0,1-7.28,2.94,9.67,9.67,0,0,1-7.14-2.94,11,11,0,0,1,0-14.69,9.66,9.66,0,0,1,7.14-2.94,10,10,0,0,1,7.28,2.94,10.47,10.47,0,0,1,0,14.69Zm89.86-24.83c-6.08,0-9.25,2.52-11.41,5-.87-1.65-3.31-5-9-5a11.35,11.35,0,0,0-9.08,4.17V500H525v33.64H533V514.25c0-4.54,2.8-7.81,6.54-7.81s6,2.87,6,7.48v19.69h7.94V514.25c0-4.6,2.73-7.81,6.67-7.81s6,2.87,6,7.47v19.69h8V512.78c0-8.77-4.71-13.48-11.68-13.48Z" transform="translate(-412.75 -474.69)"/></svg>